<?xml version="1.0" encoding="utf-8"?>
<?xml-stylesheet type="text/xsl" href="rss1.xsl"?>
<rss version="2.0" xmlns:atom="http://www.w3.org/2005/Atom" xmlns:content="http://purl.org/rss/1.0/modules/content/" xmlns:dc="http://purl.org/dc/elements/1.1/" xmlns:media="http://search.yahoo.com/mrss/">
<channel>
 <title>Getty</title>
 <link>http://www.gettyimg.com/</link>
 <atom:link href="http://www.gettyimg.com/" rel="self" type="application/rss+xml" />

 
                <item>
                <title><![CDATA[【Cinema Center】MOVIE - Diary of a Wimpy Kid Christmas: Cabin Fever (2023) 1080p DSNP WEB-DL h264 DDP5.1 Atmos]]></title>
                <link><![CDATA[https://sharemania.us/threads/diary-of-a-wimpy-kid-christmas-cabin-fever-2023-1080p-dsnp-web-dl-h264-ddp5-1-atmos.233658/]]></link>
                <description><![CDATA[<article>
<blockquote class="messageText SelectQuoteContainer ugc baseHtml">
<img src="https://images2.imgbox.com/0c/09/1UjMREw8_o.jpg" class="bbCodeImage LbImage" alt="[​IMG]" data-url="https://images2.imgbox.com/0c/09/1UjMREw8_o.jpg" style=""><br>
<div class="ToggleTriggerAnchor bbCodeSpoilerContainer">
<button type="button" class="button bbCodeSpoilerButton ToggleTrigger Tooltip JsOnly" data-target="> .SpoilerTarget"><span>Spoiler</span></button>
<div class="SpoilerTarget bbCodeSpoilerText">
<div class="bbCodeBlock bbCodeCode">
<div class="type">Code:</div>
<pre>General
Unique ID : 188279579938492855663460033650999832381 (0x8DA553FDD6AD42D2800FC19C58EE2F3D)
Complete name : Diary.of.a.Wimpy.Kid.Christmas.Cabin.Fever.2023.1080p.DSNP.WEB-DL.DDP5.1.Atmos.H.264-FLUX.mkv
Format : Matroska
Format version : Version 4
File size : 2.87 GiB
Duration : 1 h 2 min
Overall bit rate mode : Variable
Overall bit rate : 6 551 kb/s
Writing application : mkvmerge v80.0 (&amp;#039;Roundabout&amp;#039 64-bit
Writing library : libebml v1.4.4 + libmatroska v1.7.1

Video
ID : 1
Format : AVC
Format/Info : Advanced Video Codec
Format profile : High@L4
Format settings : CABAC / 4 Ref Frames
Format settings, CABAC : Yes
Format settings, Reference frames : 4 frames
Codec ID : V_MPEG4/ISO/AVC
Duration : 1 h 2 min
Bit rate mode : Variable
Bit rate : 5 652 kb/s
Maximum bit rate : 12.7 Mb/s
Width : 1 920 pixels
Height : 1 080 pixels
Display aspect ratio : 16:9
Frame rate mode : Constant
Frame rate : 24.000 FPS
Color space : YUV
Chroma subsampling : 4:2:0
Bit depth : 8 bits
Scan type : Progressive
Bits/(Pixel*Frame) : 0.114
Stream size : 2.48 GiB (86%)
Default : Yes
Forced : No
Color range : Limited
Color primaries : BT.709
Transfer characteristics : BT.709
Matrix coefficients : BT.709

Audio
ID : 2
Format : E-AC-3 JOC
Format/Info : Enhanced AC-3 with Joint Object Coding
Commercial name : Dolby Digital Plus with Dolby Atmos
Codec ID : A_EAC3
Duration : 1 h 2 min
Bit rate mode : Constant
Bit rate : 768 kb/s
Channel(s) : 6 channels
Channel layout : L R C LFE Ls Rs
Sampling rate : 48.0 kHz
Frame rate : 31.250 FPS (1536 SPF)
Compression mode : Lossy
Stream size : 344 MiB (12%)
Language : English
Service kind : Complete Main
Default : Yes
Forced : No
Complexity index : 16
Number of dynamic objects : 15
Bed channel count : 1 channel
Bed channel configuration : LFE

Text #1
ID : 3
Format : UTF-8
Codec ID : S_TEXT/UTF8
Codec ID/Info : UTF-8 Plain Text
Language : English
Default : No
Forced : No

Text #2
ID : 4
Format : UTF-8
Codec ID : S_TEXT/UTF8
Codec ID/Info : UTF-8 Plain Text
Title : SDH
Language : English
Default : No
Forced : No

Text #3
ID : 5
Format : UTF-8
Codec ID : S_TEXT/UTF8
Codec ID/Info : UTF-8 Plain Text
Title : Traditional
Language : Chinese (Traditional)
Default : No
Forced : No

Menu
00:00:00.000 : en:Scene 1
00:08:38.000 : en:Scene 2
00:15:02.167 : en:Scene 3
00:21:23.917 : en:Scene 4
00:28:36.000 : en:Scene 5
00:40:25.958 : en:Scene 6
00:51:30.750 : en:Scene 7
00:58:33.667 : en:Credits</pre>
</div></div>
</div>
<div class="bbCodeBlock bbCodeVfcHH HiddenContent">
<div class="attribution type">Hidden Content:</div>
<blockquote>You must reply before you can see the hidden data contained here.</blockquote>
</div><img src="https://images2.imgbox.com/a7/87/YgjpFeWK_o.png" class="bbCodeImage LbImage" alt="[​IMG]" data-url="https://images2.imgbox.com/a7/87/YgjpFeWK_o.png" style="">
<div class="messageTextEndMarker">&nbsp;</div>
</blockquote>
</article>]]></description>
                <author><![CDATA[Cauã]]></author>
                </item>

                
                <item>
                <title><![CDATA[【Albums (lossless)】FLAC - Joby Talbot, Neil Hannon, The Cast of Wonka - Wonka (Original Motion Picture Soundtrack) (MQA)]]></title>
                <link><![CDATA[https://sharemania.us/threads/joby-talbot-neil-hannon-the-cast-of-wonka-wonka-original-motion-picture-soundtrack-mqa.233657/]]></link>
                <description><![CDATA[<article>
<blockquote class="messageText SelectQuoteContainer ugc baseHtml">
Thanks
<div class="messageTextEndMarker">&nbsp;</div>
</blockquote>
</article>]]></description>
                <author><![CDATA[BbbDdd345]]></author>
                </item>

                </channel></rss>